<svg width="1113" height="216" viewBox="0 0 1113 216" fill="none" xmlns="http://www.w3.org/2000/svg">
<path fill-rule="evenodd" clip-rule="evenodd" d="M96.0131 145.834C95.5155 145.854 95.0154 145.863 94.513 145.863C94.0107 145.863 93.5107 145.854 93.0131 145.834V203.5H96.0131V145.834ZM91.0579 145.708C90.0545 145.617 89.0624 145.487 88.0832 145.32L80.5641 202.432L83.5385 202.824L91.0579 145.708ZM86.1538 144.938C85.1728 144.717 84.2063 144.457 83.2558 144.162L68.3614 199.749L71.2591 200.525L86.1538 144.938ZM81.3866 143.526C80.445 143.178 79.521 142.794 78.6164 142.375L56.6131 195.495L59.3847 196.644L81.3866 143.526ZM76.8416 141.495C75.9554 141.027 75.09 140.524 74.2471 139.989L45.5205 189.745L48.1185 191.245L76.8416 141.495ZM72.5987 138.881L37.6535 184.422L35.2735 182.596L70.2241 137.048C70.9904 137.689 71.7826 138.301 72.5987 138.881ZM68.7306 135.729L28.1681 176.292L26.0468 174.171L66.6161 133.601C67.2927 134.338 67.9981 135.048 68.7306 135.729ZM65.3048 132.096L19.8258 166.993L17.9995 164.613L63.4871 129.709C64.062 130.529 64.6684 131.325 65.3048 132.096ZM62.3817 128.04L12.768 156.685L11.268 154.087L60.8938 125.435C61.3561 126.325 61.8527 127.194 62.3817 128.04ZM60.0166 123.631L7.11636 145.543L5.96831 142.772L58.8866 120.852C59.2273 121.797 59.6046 122.724 60.0166 123.631ZM58.2556 118.945C57.9683 117.992 57.7176 117.024 57.505 116.041L2.19062 130.862L2.96708 133.76L58.2556 118.945ZM57.1327 114.065C56.9748 113.084 56.8546 112.091 56.7735 111.087L0.000312909 118.561L0.391891 121.535L57.1327 114.065ZM56.7735 104.913C56.8546 103.909 56.9748 102.916 57.1327 101.935L0.391579 94.4647L0 97.439L56.7735 104.913ZM57.505 99.9594C57.7176 98.9764 57.9683 98.0076 58.2556 97.0547L2.96746 82.2403L2.191 85.138L57.505 99.9594ZM58.8866 95.1477C59.2273 94.2033 59.6046 93.2764 60.0166 92.3686L7.11639 70.4566L5.96834 73.2282L58.8866 95.1477ZM60.8938 90.5648C61.3561 89.6752 61.8527 88.8063 62.3818 87.9598L12.7681 59.3153L11.2681 61.9134L60.8938 90.5648ZM63.487 86.2912C64.0618 85.4712 64.6683 84.675 65.3047 83.9045L19.8255 49.0071L17.9992 51.3871L63.487 86.2912ZM66.6163 82.3986C67.2929 81.6617 67.9983 80.9517 68.7308 80.2704L28.1685 39.7081L26.0472 41.8294L66.6163 82.3986ZM70.2238 78.9527C70.9902 78.3112 71.7823 77.6994 72.5984 77.1192L37.6532 31.5778L35.2732 33.4041L70.2238 78.9527ZM74.2471 76.0109C75.0899 75.4759 75.9553 74.9732 76.8415 74.5047L48.1185 24.755L45.5205 26.255L74.2471 76.0109ZM78.6164 73.6252C79.521 73.2061 80.445 72.8217 81.3866 72.4737L59.3847 19.3565L56.6131 20.5045L78.6164 73.6252ZM83.2559 71.8381C84.2063 71.5425 85.1729 71.2834 86.1538 71.0624L71.2591 15.4747L68.3614 16.2512L83.2559 71.8381ZM88.0835 70.6802C89.0628 70.5127 90.0549 70.3828 91.0583 70.2921L83.5388 13.1762L80.5645 13.5678L88.0835 70.6802ZM93.0131 70.1657C93.5107 70.1463 94.0107 70.1366 94.513 70.1366C95.0154 70.1366 95.5155 70.1463 96.0131 70.1657V12.5H93.0131V70.1657ZM97.9608 70.2914C98.9642 70.382 99.9564 70.5117 100.936 70.6791L108.469 13.4579L105.495 13.0664L97.9608 70.2914ZM102.844 71.0562C103.826 71.2765 104.792 71.5349 105.743 71.8297L120.694 16.0334L117.796 15.2569L102.844 71.0562ZM107.579 72.4516C108.522 72.7981 109.446 73.1809 110.352 73.5984L132.477 20.1825L129.706 19.0345L107.579 72.4516ZM112.085 74.4522C112.972 74.9181 113.839 75.4182 114.684 75.9508L143.619 25.8343L141.02 24.3343L112.085 74.4522ZM116.286 77.0189C117.104 77.5954 117.899 78.2035 118.669 78.8414L153.927 32.8918L151.547 31.0656L116.286 77.0189ZM120.114 80.1032C120.851 80.7798 121.561 81.4852 122.242 82.2176L163.226 41.2344L161.104 39.1131L120.114 80.1032ZM123.511 83.6515C124.154 84.4166 124.767 85.2075 125.349 86.0224L171.356 50.7196L169.53 48.3395L123.511 83.6515ZM126.419 87.6041C126.958 88.4448 127.464 89.3081 127.936 90.1924L178.179 61.1847L176.679 58.5866L126.419 87.6041ZM128.791 91.8968C129.216 92.799 129.606 93.7206 129.96 94.6601L183.577 72.4509L182.429 69.6792L128.791 91.8968ZM130.585 96.4587C130.888 97.407 131.155 98.3715 131.384 99.3505L187.459 84.3253L186.682 81.4275L130.585 96.4587ZM131.77 101.213C131.947 102.191 132.086 103.182 132.187 104.184L189.758 96.6048L189.366 93.6305L131.77 101.213ZM132.187 111.816C132.086 112.818 131.947 113.809 131.77 114.787L189.366 122.37L189.758 119.395L132.187 111.816ZM131.384 116.649C131.155 117.628 130.888 118.593 130.585 119.541L186.683 134.572L187.459 131.675L131.384 116.649ZM129.96 121.34C129.606 122.279 129.216 123.201 128.791 124.103L182.429 146.321L183.577 143.549L129.96 121.34ZM127.936 125.808C127.464 126.692 126.958 127.555 126.419 128.396L176.679 157.413L178.179 154.815L127.936 125.808ZM125.349 129.978C124.767 130.793 124.153 131.584 123.51 132.349L169.53 167.661L171.356 165.281L125.349 129.978ZM122.243 133.782C121.561 134.515 120.851 135.22 120.114 135.897L161.105 176.887L163.226 174.765L122.243 133.782ZM118.668 137.159C117.899 137.797 117.104 138.405 116.285 138.981L151.547 184.935L153.927 183.108L118.668 137.159ZM114.684 140.049C113.839 140.582 112.972 141.082 112.085 141.548L141.02 191.666L143.619 190.166L114.684 140.049ZM110.352 142.402C109.446 142.819 108.522 143.202 107.579 143.548L129.706 196.966L132.477 195.817L110.352 142.402ZM105.743 144.17C104.792 144.465 103.826 144.724 102.844 144.944L117.796 200.743L120.694 199.967L105.743 144.17ZM100.936 145.321L108.469 202.542L105.495 202.934L97.9612 145.709C98.9646 145.618 99.9567 145.488 100.936 145.321Z" fill="white"/>
<path fill-rule="evenodd" clip-rule="evenodd" d="M132.354 109.317C132.369 108.88 132.376 108.441 132.376 108C132.376 107.436 132.364 106.875 132.34 106.317L191.275 106.317V109.317L132.354 109.317ZM56.6721 109.317L0.275177 109.317L0.275177 106.317L56.6863 106.317C56.6619 106.875 56.6496 107.436 56.6496 108C56.6496 108.441 56.6572 108.88 56.6721 109.317Z" fill="white"/>
<circle cx="94.5128" cy="108" r="36.3634" stroke="white" stroke-width="3"/>
<path d="M121.23 107.389C122.088 107.614 122.925 107.817 123.729 108C122.925 108.183 122.088 108.386 121.23 108.61C115.309 110.157 108.052 112.792 103.679 117.166C99.3052 121.539 96.6704 128.796 95.1233 134.717C94.8991 135.576 94.6961 136.412 94.5129 137.216C94.3296 136.412 94.1266 135.576 93.9024 134.717C92.3553 128.796 89.7205 121.539 85.3469 117.166C80.9734 112.792 73.7167 110.157 67.7955 108.61C66.9372 108.386 66.1005 108.183 65.2966 108C66.1005 107.817 66.9372 107.614 67.7955 107.389C73.7167 105.842 80.9734 103.208 85.3469 98.834C89.7205 94.4604 92.3553 87.2038 93.9024 81.2826C94.1266 80.4243 94.3296 79.5875 94.5129 78.7837C94.6961 79.5875 94.8991 80.4243 95.1233 81.2826C96.6704 87.2038 99.3052 94.4604 103.679 98.834C108.052 103.208 115.309 105.842 121.23 107.389Z" stroke="white" stroke-width="3"/>
<path d="M217.435 169H223.375C232.375 169 234.895 167.2 238.135 158.56L249.295 128.68H299.515L310.495 158.56C313.735 167.2 316.435 169 325.435 169H331.195V157.84H329.035C325.615 157.84 323.815 157.3 322.555 153.88L281.155 42.46H267.655L226.255 153.88C224.995 157.3 223.015 157.84 219.775 157.84H217.435V169ZM252.715 117.7L269.275 72.52C271.435 66.58 274.135 56.14 274.135 56.14H274.495C274.495 56.14 277.195 66.58 279.355 72.52L296.095 117.7H252.715ZM349.236 169H361.476V130.84C361.476 125.08 362.196 118.96 363.996 113.2C367.956 99.88 377.496 89.8 390.276 89.8C392.616 89.8 394.776 90.16 394.776 90.16V78.1C394.776 78.1 392.436 77.56 389.916 77.56C375.696 77.56 365.616 88 361.296 101.68H360.936C360.936 101.68 361.296 98.62 361.296 94.84V88.72C361.296 81.52 357.876 78.46 350.316 78.46H337.716V89.08H345.276C347.796 89.08 349.236 90.52 349.236 93.04V169ZM402.835 123.64C402.835 151.72 417.955 171.16 442.255 171.16C466.015 171.16 473.395 153.16 473.395 153.16H473.755C473.755 153.16 473.395 155.5 473.395 158.92C473.395 165.58 476.635 169 484.195 169H496.795V158.38H489.235C486.715 158.38 485.275 157.12 485.275 154.42V53.44C485.275 45.7 482.035 42.46 474.295 42.46H461.515V53.08H469.075C471.595 53.08 473.035 54.52 473.035 57.04V86.38C473.035 90.16 473.395 93.22 473.395 93.22H473.035C473.035 93.22 465.475 76.3 443.515 76.3C419.755 76.3 402.835 95.02 402.835 123.64ZM444.055 160.18C427.135 160.18 415.435 145.96 415.435 123.64C415.435 100.78 428.575 87.28 444.595 87.28C464.035 87.28 473.395 105.28 473.395 123.64C473.395 149.38 459.175 160.18 444.055 160.18ZM508.295 144.34C508.295 162.34 523.955 171.16 539.075 171.16C561.755 171.16 569.315 151.54 569.135 151.54H569.495C569.495 151.54 569.315 154.24 569.315 158.2C569.315 165.58 572.375 169 580.115 169H592.535V158.38H584.975C582.455 158.38 581.015 157.12 581.015 154.42V111.04C581.015 91.6 574.175 76.3 545.555 76.3C537.635 76.3 516.035 79 516.035 91.6V100.24H527.735V94.48C527.735 87.82 540.875 86.56 545.375 86.56C561.935 86.56 568.775 93.22 568.775 112.12V113.2H563.735C548.075 113.2 508.295 114.28 508.295 144.34ZM520.895 143.62C520.895 123.28 549.335 122.92 563.555 122.92H568.775V127.06C568.775 142.72 558.335 160.72 541.055 160.72C527.555 160.72 520.895 152.08 520.895 143.62ZM630.62 169H644.3L666.26 104.56C667.88 100.06 669.14 94.84 669.14 94.84H669.5C669.5 94.84 670.76 100.06 672.2 104.56L694.34 169H707.84L733.76 93.22C734.84 89.98 737 89.08 740.06 89.08H742.58V78.46H736.28C727.64 78.46 724.76 80.08 722.06 88.54L703.34 145.96C701.9 150.46 700.82 155.68 700.82 155.68H700.46C700.46 155.68 699.02 150.28 697.58 145.96L675.44 78.82H663.2L641.06 145.96C639.62 150.28 638.18 155.68 638.18 155.68H637.82C637.82 155.68 636.56 150.28 635.12 145.96L616.58 88.54C613.88 80.08 611 78.46 602.36 78.46H596.06V89.08H598.4C601.64 89.08 603.62 89.98 604.7 93.22L630.62 169ZM750.698 144.34C750.698 162.34 766.358 171.16 781.478 171.16C804.158 171.16 811.718 151.54 811.538 151.54H811.898C811.898 151.54 811.718 154.24 811.718 158.2C811.718 165.58 814.778 169 822.518 169H834.938V158.38H827.378C824.858 158.38 823.418 157.12 823.418 154.42V111.04C823.418 91.6 816.578 76.3 787.958 76.3C780.038 76.3 758.438 79 758.438 91.6V100.24H770.138V94.48C770.138 87.82 783.278 86.56 787.778 86.56C804.338 86.56 811.178 93.22 811.178 112.12V113.2H806.138C790.478 113.2 750.698 114.28 750.698 144.34ZM763.298 143.62C763.298 123.28 791.738 122.92 805.958 122.92H811.178V127.06C811.178 142.72 800.738 160.72 783.458 160.72C769.958 160.72 763.298 152.08 763.298 143.62ZM854.251 158.02C854.251 165.76 857.491 169 865.231 169H878.011V158.38H870.451C867.931 158.38 866.491 157.12 866.491 154.42V53.44C866.491 45.7 863.251 42.46 855.511 42.46H842.731V53.08H850.291C852.811 53.08 854.251 54.52 854.251 57.04V158.02ZM899.092 57.94H910.972V42.46H899.092V57.94ZM899.452 158.02C899.452 165.76 902.692 169 910.432 169H923.212V158.38H915.652C913.132 158.38 911.692 157.12 911.692 154.42V89.44C911.692 81.7 908.452 78.46 900.712 78.46H887.932V89.08H895.492C898.012 89.08 899.452 90.52 899.452 93.04V158.02ZM943.188 169H955.428V123.64H963.708C966.948 123.64 971.268 124 973.248 127.6L991.248 160C995.388 167.56 997.908 169 1006.91 169H1015.37V158.38H1010.51C1005.65 158.38 1003.85 157.48 1002.23 154.42L985.848 125.08C982.968 119.68 980.268 118.42 980.268 118.42V118.06C980.268 118.06 982.608 117.16 987.108 111.58L1013.21 78.46H998.268L975.048 108.7C972.528 111.94 968.208 113.02 964.788 113.02H955.428V52.9C955.428 45.16 952.188 42.46 944.448 42.46H931.668V53.08H939.228C941.748 53.08 943.188 54.52 943.188 57.04V169ZM1023.69 144.34C1023.69 162.34 1039.35 171.16 1054.47 171.16C1077.15 171.16 1084.71 151.54 1084.53 151.54H1084.89C1084.89 151.54 1084.71 154.24 1084.71 158.2C1084.71 165.58 1087.77 169 1095.51 169H1107.93V158.38H1100.37C1097.85 158.38 1096.41 157.12 1096.41 154.42V111.04C1096.41 91.6 1089.57 76.3 1060.95 76.3C1053.03 76.3 1031.43 79 1031.43 91.6V100.24H1043.13V94.48C1043.13 87.82 1056.27 86.56 1060.77 86.56C1077.33 86.56 1084.17 93.22 1084.17 112.12V113.2H1079.13C1063.47 113.2 1023.69 114.28 1023.69 144.34ZM1036.29 143.62C1036.29 123.28 1064.73 122.92 1078.95 122.92H1084.17V127.06C1084.17 142.72 1073.73 160.72 1056.45 160.72C1042.95 160.72 1036.29 152.08 1036.29 143.62Z" fill="white"/>
</svg>
