<svg width="30" height="30" viewBox="0 0 30 30" fill="none" xmlns="http://www.w3.org/2000/svg">
<rect width="30" height="30" rx="15" fill="#F5F6F7"/>
<path d="M18.728 12.6861L17.314 11.2721L8 20.5861V22.0001H9.414L18.728 12.6861ZM20.142 11.2721L21.556 9.85808L20.142 8.44408L18.728 9.85808L20.142 11.2721ZM10.242 24.0001H6V19.7571L19.435 6.32208C19.6225 6.13461 19.8768 6.0293 20.142 6.0293C20.4072 6.0293 20.6615 6.13461 20.849 6.32208L23.678 9.15108C23.8655 9.33861 23.9708 9.59292 23.9708 9.85808C23.9708 10.1232 23.8655 10.3776 23.678 10.5651L10.243 24.0001H10.242Z" fill="#8C93A3"/>
</svg>
