<svg width="32" height="32" viewBox="0 0 32 32" fill="none" xmlns="http://www.w3.org/2000/svg">
<path d="M29.0001 15.9999C28.9937 19.1761 27.8281 22.2406 25.7221 24.6181C23.6161 26.9957 20.7147 28.5227 17.5626 28.9124C17.4923 28.9194 17.4213 28.9116 17.3541 28.8898C17.2868 28.8679 17.2249 28.8324 17.172 28.7854C17.1192 28.7385 17.0767 28.6811 17.0471 28.6169C17.0175 28.5527 17.0015 28.4831 17.0001 28.4124V18.9999H20.0001C20.1369 19.0002 20.2722 18.9724 20.3978 18.9183C20.5234 18.8642 20.6366 18.7849 20.7303 18.6853C20.824 18.5857 20.8963 18.468 20.9427 18.3394C20.9891 18.2107 21.0087 18.0739 21.0001 17.9374C20.978 17.6789 20.8586 17.4383 20.6661 17.2643C20.4735 17.0903 20.2221 16.9958 19.9626 16.9999H17.0001V13.9999C17.0001 13.4695 17.2108 12.9608 17.5859 12.5857C17.961 12.2107 18.4697 11.9999 19.0001 11.9999H21.0001C21.1369 12.0002 21.2722 11.9724 21.3978 11.9183C21.5234 11.8642 21.6366 11.7849 21.7303 11.6853C21.824 11.5857 21.8963 11.468 21.9427 11.3394C21.9891 11.2107 22.0087 11.0739 22.0001 10.9374C21.978 10.6789 21.8586 10.4383 21.6661 10.2643C21.4735 10.0903 21.2221 9.99584 20.9626 9.99995H19.0001C17.9393 9.99995 16.9218 10.4214 16.1717 11.1715C15.4216 11.9217 15.0001 12.9391 15.0001 13.9999V16.9999H12.0001C11.8634 16.9997 11.728 17.0275 11.6024 17.0816C11.4768 17.1357 11.3637 17.215 11.27 17.3146C11.1762 17.4142 11.1039 17.5319 11.0575 17.6605C11.0111 17.7892 10.9916 17.926 11.0001 18.0624C11.0222 18.321 11.1416 18.5616 11.3342 18.7356C11.5267 18.9096 11.7781 19.0041 12.0376 18.9999H15.0001V28.4124C15.0005 28.4825 14.9861 28.5519 14.9579 28.6161C14.9297 28.6803 14.8883 28.7378 14.8365 28.7849C14.7846 28.8321 14.7234 28.8678 14.6569 28.8898C14.5903 28.9117 14.5199 28.9195 14.4501 28.9124C7.85012 28.1124 2.75012 22.3749 3.01262 15.5124C3.15998 12.1234 4.62619 8.92624 7.09829 6.60333C9.57039 4.28042 12.8525 3.01581 16.2442 3.07944C19.6358 3.14306 22.8682 4.52988 25.2515 6.94387C27.6347 9.35785 28.98 12.6078 29.0001 15.9999Z" fill="#0F1D40"/>
</svg>
