<svg width="56" height="56" viewBox="0 0 56 56" fill="none" xmlns="http://www.w3.org/2000/svg">
<circle cx="28" cy="28" r="28" fill="#CEF1FD"/>
<path d="M28.0001 15.1666L39.0834 21.5833V34.4166L28.0001 40.8333L16.9167 34.4166V21.5833L28.0001 15.1666ZM28.0001 17.8628L19.2501 22.9285V33.0715L28.0001 38.1371L36.7501 33.0715V22.9285L28.0001 17.8628ZM28.0001 32.6666C26.7624 32.6666 25.5754 32.175 24.7002 31.2998C23.8251 30.4246 23.3334 29.2376 23.3334 28C23.3334 26.7623 23.8251 25.5753 24.7002 24.7001C25.5754 23.825 26.7624 23.3333 28.0001 23.3333C29.2378 23.3333 30.4247 23.825 31.2999 24.7001C32.1751 25.5753 32.6667 26.7623 32.6667 28C32.6667 29.2376 32.1751 30.4246 31.2999 31.2998C30.4247 32.175 29.2378 32.6666 28.0001 32.6666ZM28.0001 30.3333C28.6189 30.3333 29.2124 30.0875 29.65 29.6499C30.0876 29.2123 30.3334 28.6188 30.3334 28C30.3334 27.3811 30.0876 26.7876 29.65 26.35C29.2124 25.9125 28.6189 25.6666 28.0001 25.6666C27.3812 25.6666 26.7878 25.9125 26.3502 26.35C25.9126 26.7876 25.6667 27.3811 25.6667 28C25.6667 28.6188 25.9126 29.2123 26.3502 29.6499C26.7878 30.0875 27.3812 30.3333 28.0001 30.3333Z" fill="#1081E8"/>
</svg>
