<svg width="56" height="56" viewBox="0 0 56 56" fill="none" xmlns="http://www.w3.org/2000/svg">
<circle cx="28" cy="28" r="28" fill="#CEF1FD"/>
<path d="M33.8333 17.5H38.4999C38.8093 17.5 39.1061 17.6229 39.3249 17.8417C39.5437 18.0605 39.6666 18.3573 39.6666 18.6667V37.3334C39.6666 37.6428 39.5437 37.9395 39.3249 38.1583C39.1061 38.3771 38.8093 38.5 38.4999 38.5H17.4999C17.1905 38.5 16.8938 38.3771 16.675 38.1583C16.4562 37.9395 16.3333 37.6428 16.3333 37.3334V18.6667C16.3333 18.3573 16.4562 18.0605 16.675 17.8417C16.8938 17.6229 17.1905 17.5 17.4999 17.5H22.1666V15.1667H24.4999V17.5H31.4999V15.1667H33.8333V17.5ZM37.3333 26.8334H18.6666V36.1667H37.3333V26.8334ZM31.4999 19.8334H24.4999V22.1667H22.1666V19.8334H18.6666V24.5H37.3333V19.8334H33.8333V22.1667H31.4999V19.8334ZM20.9999 29.1667H23.3333V31.5H20.9999V29.1667ZM26.8333 29.1667H29.1666V31.5H26.8333V29.1667ZM32.6666 29.1667H34.9999V31.5H32.6666V29.1667Z" fill="#1081E8"/>
</svg>
