<svg width="48" height="48" viewBox="0 0 48 48" fill="none" xmlns="http://www.w3.org/2000/svg">
<circle cx="24" cy="24" r="24" fill="#CEF1FD"/>
<mask id="path-2-inside-1_130_1875" fill="white">
<path d="M24 34C18.477 34 14 29.523 14 24C14 18.477 18.477 14 24 14C29.523 14 34 18.477 34 24C34 29.523 29.523 34 24 34ZM24 32C26.1217 32 28.1566 31.1571 29.6569 29.6569C31.1571 28.1566 32 26.1217 32 24C32 21.8783 31.1571 19.8434 29.6569 18.3431C28.1566 16.8429 26.1217 16 24 16C21.8783 16 19.8434 16.8429 18.3431 18.3431C16.8429 19.8434 16 21.8783 16 24C16 26.1217 16.8429 28.1566 18.3431 29.6569C19.8434 31.1571 21.8783 32 24 32V32ZM25 24H29V26H23V19H25V24Z"/>
</mask>
<path d="M24 34C18.477 34 14 29.523 14 24C14 18.477 18.477 14 24 14C29.523 14 34 18.477 34 24C34 29.523 29.523 34 24 34ZM24 32C26.1217 32 28.1566 31.1571 29.6569 29.6569C31.1571 28.1566 32 26.1217 32 24C32 21.8783 31.1571 19.8434 29.6569 18.3431C28.1566 16.8429 26.1217 16 24 16C21.8783 16 19.8434 16.8429 18.3431 18.3431C16.8429 19.8434 16 21.8783 16 24C16 26.1217 16.8429 28.1566 18.3431 29.6569C19.8434 31.1571 21.8783 32 24 32V32ZM25 24H29V26H23V19H25V24Z" fill="#1081E8"/>
<path d="M32 24L35 24L32 24ZM24 16V13V16ZM16 24H13H16ZM25 24H22V27H25V24ZM29 24H32V21H29V24ZM29 26V29H32V26H29ZM23 26H20V29H23V26ZM23 19V16H20V19H23ZM25 19H28V16H25V19ZM24 31C20.1339 31 17 27.8661 17 24H11C11 31.1799 16.8201 37 24 37V31ZM17 24C17 20.1339 20.1339 17 24 17V11C16.8201 11 11 16.8201 11 24H17ZM24 17C27.8661 17 31 20.1339 31 24H37C37 16.8201 31.1799 11 24 11V17ZM31 24C31 27.8661 27.8661 31 24 31V37C31.1799 37 37 31.1799 37 24H31ZM24 35C26.9174 35 29.7153 33.8411 31.7782 31.7782L27.5355 27.5355C26.5979 28.4732 25.3261 29 24 29L24 35ZM31.7782 31.7782C33.8411 29.7153 35 26.9174 35 24L29 24C29 25.3261 28.4732 26.5979 27.5355 27.5355L31.7782 31.7782ZM35 24C35 21.0826 33.8411 18.2847 31.7782 16.2218L27.5355 20.4645C28.4732 21.4021 29 22.6739 29 24L35 24ZM31.7782 16.2218C29.7153 14.1589 26.9174 13 24 13V19C25.3261 19 26.5979 19.5268 27.5355 20.4645L31.7782 16.2218ZM24 13C21.0826 13 18.2847 14.1589 16.2218 16.2218L20.4645 20.4645C21.4021 19.5268 22.6739 19 24 19V13ZM16.2218 16.2218C14.1589 18.2847 13 21.0826 13 24L19 24C19 22.6739 19.5268 21.4021 20.4645 20.4645L16.2218 16.2218ZM13 24C13 26.9174 14.1589 29.7153 16.2218 31.7782L20.4645 27.5355C19.5268 26.5979 19 25.3261 19 24H13ZM16.2218 31.7782C18.2847 33.8411 21.0826 35 24 35L24 29C22.6739 29 21.4021 28.4732 20.4645 27.5355L16.2218 31.7782ZM25 27H29V21H25V27ZM26 24V26H32V24H26ZM29 23H23V29H29V23ZM26 26V19H20V26H26ZM23 22H25V16H23V22ZM22 19V24H28V19H22Z" fill="#1081E8" mask="url(#path-2-inside-1_130_1875)"/>
</svg>
