<svg width="48" height="48" viewBox="0 0 48 48" fill="none" xmlns="http://www.w3.org/2000/svg">
<circle cx="24" cy="24" r="24" fill="#CEF1FD"/>
<rect width="24" height="24" transform="translate(12 12)" fill="#CEF1FD"/>
<mask id="path-2-inside-1_130_1872" fill="white">
<path d="M32 34H16C15.7348 34 15.4804 33.8946 15.2929 33.7071C15.1054 33.5196 15 33.2652 15 33V15C15 14.7348 15.1054 14.4804 15.2929 14.2929C15.4804 14.1054 15.7348 14 16 14H32C32.2652 14 32.5196 14.1054 32.7071 14.2929C32.8946 14.4804 33 14.7348 33 15V33C33 33.2652 32.8946 33.5196 32.7071 33.7071C32.5196 33.8946 32.2652 34 32 34ZM31 32V16H17V32H31ZM20 19H28V21H20V19ZM20 23H28V25H20V23ZM20 27H25V29H20V27Z"/>
</mask>
<path d="M32 34H16C15.7348 34 15.4804 33.8946 15.2929 33.7071C15.1054 33.5196 15 33.2652 15 33V15C15 14.7348 15.1054 14.4804 15.2929 14.2929C15.4804 14.1054 15.7348 14 16 14H32C32.2652 14 32.5196 14.1054 32.7071 14.2929C32.8946 14.4804 33 14.7348 33 15V33C33 33.2652 32.8946 33.5196 32.7071 33.7071C32.5196 33.8946 32.2652 34 32 34ZM31 32V16H17V32H31ZM20 19H28V21H20V19ZM20 23H28V25H20V23ZM20 27H25V29H20V27Z" fill="#1081E8"/>
<path d="M15 33H12H15ZM16 14L16 11L16 14ZM32 14V11V14ZM31 32V35H34V32H31ZM31 16H34V13H31V16ZM17 16V13H14V16H17ZM17 32H14V35H17V32ZM20 19V16H17V19H20ZM28 19H31V16H28V19ZM28 21V24H31V21H28ZM20 21H17V24H20V21ZM20 23V20H17V23H20ZM28 23H31V20H28V23ZM28 25V28H31V25H28ZM20 25H17V28H20V25ZM20 27V24H17V27H20ZM25 27H28V24H25V27ZM25 29V32H28V29H25ZM20 29H17V32H20V29ZM32 31H16V37H32V31ZM16 31C16.5304 31 17.0391 31.2107 17.4142 31.5858L13.1716 35.8284C13.9217 36.5786 14.9391 37 16 37V31ZM17.4142 31.5858C17.7893 31.9609 18 32.4696 18 33H12C12 34.0609 12.4214 35.0783 13.1716 35.8284L17.4142 31.5858ZM18 33V15H12V33H18ZM18 15C18 15.5304 17.7893 16.0391 17.4142 16.4142L13.1716 12.1716C12.4214 12.9217 12 13.9391 12 15H18ZM17.4142 16.4142C17.0391 16.7893 16.5304 17 16 17L16 11C14.9391 11 13.9217 11.4214 13.1716 12.1716L17.4142 16.4142ZM16 17H32V11H16V17ZM32 17C31.4696 17 30.9609 16.7893 30.5858 16.4142L34.8284 12.1716C34.0783 11.4214 33.0609 11 32 11L32 17ZM30.5858 16.4142C30.2107 16.0391 30 15.5304 30 15H36C36 13.9391 35.5786 12.9217 34.8284 12.1716L30.5858 16.4142ZM30 15V33H36V15H30ZM30 33C30 32.4696 30.2107 31.9609 30.5858 31.5858L34.8284 35.8284C35.5786 35.0783 36 34.0609 36 33H30ZM30.5858 31.5858C30.9609 31.2107 31.4696 31 32 31V37C33.0609 37 34.0783 36.5786 34.8284 35.8284L30.5858 31.5858ZM34 32V16H28V32H34ZM31 13H17V19H31V13ZM14 16V32H20V16H14ZM17 35H31V29H17V35ZM20 22H28V16H20V22ZM25 19V21H31V19H25ZM28 18H20V24H28V18ZM23 21V19H17V21H23ZM20 26H28V20H20V26ZM25 23V25H31V23H25ZM28 22H20V28H28V22ZM23 25V23H17V25H23ZM20 30H25V24H20V30ZM22 27V29H28V27H22ZM25 26H20V32H25V26ZM23 29V27H17V29H23Z" fill="#1081E8" mask="url(#path-2-inside-1_130_1872)"/>
</svg>
