<svg width="48" height="48" viewBox="0 0 48 48" fill="none" xmlns="http://www.w3.org/2000/svg">
<circle cx="24" cy="24" r="24" fill="#CEF1FD"/>
<rect width="24" height="24" transform="translate(12 12)" fill="#CEF1FD"/>
<mask id="path-2-inside-1_130_1871" fill="white">
<path d="M28.757 15L26.757 17H17V31H31V21.243L33 19.243V32C33 32.2652 32.8946 32.5195 32.7071 32.7071C32.5196 32.8946 32.2652 33 32 33H16C15.7348 33 15.4804 32.8946 15.2929 32.7071C15.1054 32.5195 15 32.2652 15 32V16C15 15.7348 15.1054 15.4804 15.2929 15.2929C15.4804 15.1053 15.7348 15 16 15H28.757V15ZM32.485 14.1L33.9 15.516L24.708 24.708L23.296 24.711L23.294 23.294L32.485 14.1V14.1Z"/>
</mask>
<path d="M28.757 15L26.757 17H17V31H31V21.243L33 19.243V32C33 32.2652 32.8946 32.5195 32.7071 32.7071C32.5196 32.8946 32.2652 33 32 33H16C15.7348 33 15.4804 32.8946 15.2929 32.7071C15.1054 32.5195 15 32.2652 15 32V16C15 15.7348 15.1054 15.4804 15.2929 15.2929C15.4804 15.1053 15.7348 15 16 15H28.757V15ZM32.485 14.1L33.9 15.516L24.708 24.708L23.296 24.711L23.294 23.294L32.485 14.1V14.1Z" fill="#1081E8"/>
<path d="M26.757 17V20H27.9996L28.8783 19.1213L26.757 17ZM17 17V14H14V17H17ZM17 31H14V34H17V31ZM31 31V34H34V31H31ZM31 21.243L28.8787 19.1217L28 20.0003V21.243H31ZM33 19.243H36V12.0003L30.8787 17.1217L33 19.243ZM15 32L12 32L15 32ZM16 15L16 12L16 15ZM33.9 15.516L36.0213 17.6373L38.1419 15.5167L36.0221 13.3954L33.9 15.516ZM24.708 24.708L24.7144 27.708L25.9533 27.7053L26.8293 26.8293L24.708 24.708ZM23.296 24.711L20.296 24.7152L20.3002 27.7173L23.3024 27.711L23.296 24.711ZM23.294 23.294L21.1723 21.173L20.2922 22.0534L20.294 23.2982L23.294 23.294ZM26.6357 12.8787L24.6357 14.8787L28.8783 19.1213L30.8783 17.1213L26.6357 12.8787ZM26.757 14H17V20H26.757V14ZM14 17V31H20V17H14ZM17 34H31V28H17V34ZM34 31V21.243H28V31H34ZM33.1213 23.3643L35.1213 21.3643L30.8787 17.1217L28.8787 19.1217L33.1213 23.3643ZM30 19.243V32H36V19.243H30ZM30 32C30 31.4696 30.2107 30.9608 30.5858 30.5858L34.8284 34.8284C35.5786 34.0783 36 33.0608 36 32H30ZM30.5858 30.5858C30.9609 30.2107 31.4696 30 32 30V36C33.0609 36 34.0783 35.5786 34.8284 34.8284L30.5858 30.5858ZM32 30H16V36H32V30ZM16 30C16.5304 30 17.0391 30.2107 17.4142 30.5858L13.1716 34.8284C13.9217 35.5786 14.9391 36 16 36V30ZM17.4142 30.5858C17.7893 30.9608 18 31.4695 18 32L12 32C12 33.0608 12.4214 34.0783 13.1716 34.8284L17.4142 30.5858ZM18 32V16H12V32H18ZM18 16C18 16.5304 17.7893 17.0391 17.4142 17.4142L13.1716 13.1715C12.4214 13.9217 12 14.9391 12 16H18ZM17.4142 17.4142C17.0391 17.7893 16.5304 18 16 18L16 12C14.9391 12 13.9217 12.4214 13.1716 13.1715L17.4142 17.4142ZM16 18H28.757V12H16V18ZM30.3629 16.2205L31.7779 17.6365L36.0221 13.3954L34.6071 11.9794L30.3629 16.2205ZM31.7787 13.3947L22.5867 22.5867L26.8293 26.8293L36.0213 17.6373L31.7787 13.3947ZM24.7016 21.708L23.2896 21.711L23.3024 27.711L24.7144 27.708L24.7016 21.708ZM26.296 24.7067L26.294 23.2897L20.294 23.2982L20.296 24.7152L26.296 24.7067ZM25.4157 25.415L34.6067 16.2209L30.3633 11.979L21.1723 21.173L25.4157 25.415Z" fill="#1081E8" mask="url(#path-2-inside-1_130_1871)"/>
</svg>
