<svg width="48" height="48" viewBox="0 0 48 48" fill="none" xmlns="http://www.w3.org/2000/svg">
<circle cx="24" cy="24" r="24" fill="#CEF1FD"/>
<path d="M24 28.875C26.0711 28.875 27.75 27.1961 27.75 25.125C27.75 23.0539 26.0711 21.375 24 21.375C21.9289 21.375 20.25 23.0539 20.25 25.125C20.25 27.1961 21.9289 28.875 24 28.875Z" stroke="#1081E8" stroke-width="2" stroke-linecap="round" stroke-linejoin="round"/>
<path d="M18.5996 32.25C19.0935 31.2385 19.8616 30.3861 20.8163 29.7898C21.771 29.1935 22.874 28.8774 23.9996 28.8774C25.1252 28.8774 26.2282 29.1935 27.1829 29.7898C28.1377 30.3861 28.9057 31.2385 29.3996 32.25" stroke="#1081E8" stroke-width="2" stroke-linecap="round" stroke-linejoin="round"/>
<path d="M31.1719 22.9313C32.6479 23.1437 33.9796 23.9325 34.875 25.125" stroke="#1081E8" stroke-width="2" stroke-linecap="round" stroke-linejoin="round"/>
<path d="M27.666 18.5813C27.8838 18.1267 28.2127 17.7343 28.6222 17.4404C29.0317 17.1464 29.5087 16.9604 30.0091 16.8995C30.5095 16.8386 31.0172 16.9048 31.4852 17.092C31.9533 17.2791 32.3667 17.5812 32.6872 17.9703C33.0076 18.3594 33.2249 18.8229 33.3189 19.3182C33.4129 19.8134 33.3806 20.3244 33.2249 20.8038C33.0693 21.2833 32.7953 21.7158 32.4284 22.0614C32.0614 22.407 31.6133 22.6546 31.1254 22.7813" stroke="#1081E8" stroke-width="2" stroke-linecap="round" stroke-linejoin="round"/>
<path d="M16.875 22.7813C16.3871 22.6546 15.939 22.407 15.572 22.0614C15.2051 21.7158 14.9311 21.2833 14.7755 20.8038C14.6198 20.3244 14.5875 19.8134 14.6815 19.3182C14.7755 18.8229 14.9928 18.3594 15.3133 17.9703C15.6337 17.5812 16.0471 17.2791 16.5152 17.092C16.9832 16.9048 17.4909 16.8386 17.9913 16.8995C18.4917 16.9604 18.9687 17.1464 19.3782 17.4404C19.7877 17.7343 20.1166 18.1267 20.3344 18.5813" stroke="#1081E8" stroke-width="2" stroke-linecap="round" stroke-linejoin="round"/>
<path d="M13.125 25.125C14.0204 23.9325 15.3521 23.1437 16.8281 22.9313" stroke="#1081E8" stroke-width="2" stroke-linecap="round" stroke-linejoin="round"/>
</svg>
