<svg width="48" height="48" viewBox="0 0 48 48" fill="none" xmlns="http://www.w3.org/2000/svg">
<circle cx="24" cy="24" r="24" fill="#CEF1FD"/>
<rect width="24" height="24" transform="translate(12 12)" fill="#CEF1FD"/>
<path d="M22 24C19.2373 24 17 21.7627 17 19M22 24C24.7627 24 27 21.7627 27 19M22 24C24.7623 24 27 21.7623 27 19M22 24C19.2377 24 17 21.7623 17 19M17 19C17 16.2373 19.2373 14 22 14M17 19C17 16.2377 19.2377 14 22 14M27 19C27 16.2373 24.7627 14 22 14M27 19C27 16.2377 24.7623 14 22 14M30.7554 28.0909L30.7555 28.0908C31.3212 28.4506 31.8324 28.8898 32.2732 29.3948C31.8324 28.8898 31.3212 28.4506 30.7554 28.0909Z" fill="#1081E8" stroke="#1081E8" stroke-width="2"/>
</svg>
