<svg width="48" height="48" viewBox="0 0 48 48" fill="none" xmlns="http://www.w3.org/2000/svg">
<circle cx="24" cy="24" r="24" fill="#CEF1FD"/>
<rect width="24" height="24" transform="translate(12 12)" fill="#CEF1FD"/>
<mask id="path-2-inside-1_130_1865" fill="white">
<path d="M14 34C14 31.8783 14.8429 29.8434 16.3431 28.3431C17.8434 26.8429 19.8783 26 22 26C24.1217 26 26.1566 26.8429 27.6569 28.3431C29.1571 29.8434 30 31.8783 30 34H28C28 32.4087 27.3679 30.8826 26.2426 29.7574C25.1174 28.6321 23.5913 28 22 28C20.4087 28 18.8826 28.6321 17.7574 29.7574C16.6321 30.8826 16 32.4087 16 34H14ZM22 25C18.685 25 16 22.315 16 19C16 15.685 18.685 13 22 13C25.315 13 28 15.685 28 19C28 22.315 25.315 25 22 25ZM22 23C24.21 23 26 21.21 26 19C26 16.79 24.21 15 22 15C19.79 15 18 16.79 18 19C18 21.21 19.79 23 22 23ZM30.284 26.703C31.6893 27.3359 32.882 28.3612 33.7186 29.6557C34.5552 30.9502 35.0002 32.4587 35 34H33C33.0002 32.844 32.6666 31.7125 32.0391 30.7416C31.4116 29.7707 30.5171 29.0017 29.463 28.527L30.283 26.703H30.284ZM29.596 15.413C30.6035 15.8283 31.465 16.5335 32.071 17.4392C32.6771 18.3449 33.0004 19.4102 33 20.5C33.0004 21.8723 32.4877 23.1952 31.5625 24.2088C30.6374 25.2224 29.3667 25.8535 28 25.978V23.965C28.7409 23.8589 29.4283 23.518 29.9613 22.9925C30.4943 22.4669 30.8447 21.7843 30.9612 21.0449C31.0776 20.3055 30.954 19.5483 30.6084 18.8844C30.2628 18.2204 29.7134 17.6847 29.041 17.356L29.596 15.413V15.413Z"/>
</mask>
<path d="M14 34C14 31.8783 14.8429 29.8434 16.3431 28.3431C17.8434 26.8429 19.8783 26 22 26C24.1217 26 26.1566 26.8429 27.6569 28.3431C29.1571 29.8434 30 31.8783 30 34H28C28 32.4087 27.3679 30.8826 26.2426 29.7574C25.1174 28.6321 23.5913 28 22 28C20.4087 28 18.8826 28.6321 17.7574 29.7574C16.6321 30.8826 16 32.4087 16 34H14ZM22 25C18.685 25 16 22.315 16 19C16 15.685 18.685 13 22 13C25.315 13 28 15.685 28 19C28 22.315 25.315 25 22 25ZM22 23C24.21 23 26 21.21 26 19C26 16.79 24.21 15 22 15C19.79 15 18 16.79 18 19C18 21.21 19.79 23 22 23ZM30.284 26.703C31.6893 27.3359 32.882 28.3612 33.7186 29.6557C34.5552 30.9502 35.0002 32.4587 35 34H33C33.0002 32.844 32.6666 31.7125 32.0391 30.7416C31.4116 29.7707 30.5171 29.0017 29.463 28.527L30.283 26.703H30.284ZM29.596 15.413C30.6035 15.8283 31.465 16.5335 32.071 17.4392C32.6771 18.3449 33.0004 19.4102 33 20.5C33.0004 21.8723 32.4877 23.1952 31.5625 24.2088C30.6374 25.2224 29.3667 25.8535 28 25.978V23.965C28.7409 23.8589 29.4283 23.518 29.9613 22.9925C30.4943 22.4669 30.8447 21.7843 30.9612 21.0449C31.0776 20.3055 30.954 19.5483 30.6084 18.8844C30.2628 18.2204 29.7134 17.6847 29.041 17.356L29.596 15.413V15.413Z" fill="#1081E8"/>
<path d="M14 34H11V37H14V34ZM22 26L22 23L22 26ZM30 34V37H33V34H30ZM28 34H25V37H28V34ZM16 34V37H19L19 34H16ZM30.284 26.703L31.5159 23.9676L30.9284 23.703H30.284V26.703ZM35 34V37H37.9997L38 34.0003L35 34ZM33 34L30 33.9994L29.9994 37H33V34ZM29.463 28.527L26.7268 27.2969L25.4975 30.0314L28.2312 31.2624L29.463 28.527ZM30.283 26.703V23.703H28.3425L27.5468 25.4729L30.283 26.703ZM33 20.5L30 20.4989L30 20.5009L33 20.5ZM28 25.978H25V29.2638L28.2722 28.9656L28 25.978ZM28 23.965L27.5747 20.9953L25 21.3641V23.965H28ZM29.041 17.356L26.1564 16.532L25.4663 18.9477L27.7234 20.0512L29.041 17.356ZM17 34C17 32.6739 17.5268 31.4021 18.4645 30.4645L14.2218 26.2218C12.1589 28.2847 11 31.0826 11 34H17ZM18.4645 30.4645C19.4021 29.5268 20.6739 29 22 29L22 23C19.0826 23 16.2847 24.1589 14.2218 26.2218L18.4645 30.4645ZM22 29C23.3261 29 24.5979 29.5268 25.5355 30.4645L29.7782 26.2218C27.7153 24.1589 24.9174 23 22 23L22 29ZM25.5355 30.4645C26.4732 31.4021 27 32.6739 27 34H33C33 31.0826 31.8411 28.2847 29.7782 26.2218L25.5355 30.4645ZM30 31H28V37H30V31ZM31 34C31 31.6131 30.0518 29.3239 28.364 27.636L24.1213 31.8787C24.6839 32.4413 25 33.2044 25 34H31ZM28.364 27.636C26.6761 25.9482 24.3869 25 22 25V31C22.7957 31 23.5587 31.3161 24.1213 31.8787L28.364 27.636ZM22 25C19.6131 25 17.3239 25.9482 15.636 27.636L19.8787 31.8787C20.4413 31.3161 21.2043 31 22 31V25ZM15.636 27.636C13.9482 29.3239 13 31.6131 13 34H19C19 33.2044 19.3161 32.4413 19.8787 31.8787L15.636 27.636ZM16 31H14V37H16V31ZM22 22C20.3419 22 19 20.6581 19 19H13C13 23.9719 17.0281 28 22 28V22ZM19 19C19 17.3419 20.3419 16 22 16V10C17.0281 10 13 14.0281 13 19H19ZM22 16C23.6581 16 25 17.3419 25 19H31C31 14.0281 26.9719 10 22 10V16ZM25 19C25 20.6581 23.6581 22 22 22V28C26.9719 28 31 23.9719 31 19H25ZM22 26C25.8669 26 29 22.8669 29 19H23C23 19.5531 22.5531 20 22 20V26ZM29 19C29 15.1331 25.8669 12 22 12V18C22.5531 18 23 18.4469 23 19H29ZM22 12C18.1331 12 15 15.1331 15 19H21C21 18.4469 21.4469 18 22 18V12ZM15 19C15 22.8669 18.1331 26 22 26V20C21.4469 20 21 19.5531 21 19H15ZM29.0521 29.4384C29.9305 29.834 30.676 30.4749 31.199 31.2841L36.2382 28.0273C35.0879 26.2475 33.4481 24.8378 31.5159 23.9676L29.0521 29.4384ZM31.199 31.2841C31.722 32.0933 32.0001 33.0362 32 33.9997L38 34.0003C38.0002 31.8812 37.3884 29.8071 36.2382 28.0273L31.199 31.2841ZM35 31H33V37H35V31ZM36 34.0006C36.0003 32.2667 35.4999 30.5695 34.5587 29.1132L29.5195 32.3699C29.8332 32.8555 30.0001 33.4213 30 33.9994L36 34.0006ZM34.5587 29.1132C33.6176 27.657 32.2758 26.5035 30.6948 25.7916L28.2312 31.2624C28.7583 31.4998 29.2057 31.8844 29.5195 32.3699L34.5587 29.1132ZM32.1992 29.7571L33.0192 27.9331L27.5468 25.4729L26.7268 27.2969L32.1992 29.7571ZM30.283 29.703H30.284V23.703H30.283V29.703ZM28.4527 18.1866C28.9107 18.3754 29.3023 18.6959 29.5777 19.1076L34.5643 15.7708C33.6277 14.3711 32.2964 13.2812 30.7393 12.6394L28.4527 18.1866ZM29.5777 19.1076C29.8532 19.5193 30.0002 20.0035 30 20.4989L36 20.5011C36.0006 18.8169 35.5009 17.1705 34.5643 15.7708L29.5777 19.1076ZM30 20.5009C30.0002 21.1246 29.7672 21.7258 29.3468 22.1864L33.7783 26.2313C35.2082 24.6647 36.0007 22.6201 36 20.4991L30 20.5009ZM29.3468 22.1864C28.9263 22.647 28.3488 22.9338 27.7278 22.9904L28.2722 28.9656C30.3845 28.7732 32.3485 27.7978 33.7783 26.2313L29.3468 22.1864ZM31 25.978V23.965H25V25.978H31ZM28.4253 26.9347C29.8014 26.7376 31.078 26.1046 32.0678 25.1285L27.8549 20.8564C27.7787 20.9315 27.6805 20.9801 27.5747 20.9953L28.4253 26.9347ZM32.0678 25.1285C33.0575 24.1525 33.7083 22.8849 33.9246 21.5117L27.9977 20.5782C27.9811 20.6838 27.931 20.7813 27.8549 20.8564L32.0678 25.1285ZM33.9246 21.5117C34.1409 20.1386 33.9113 18.7322 33.2695 17.4992L27.9473 20.2695C27.9967 20.3643 28.0143 20.4725 27.9977 20.5782L33.9246 21.5117ZM33.2695 17.4992C32.6277 16.2662 31.6074 15.2714 30.3586 14.6608L27.7234 20.0512C27.8194 20.0981 27.8979 20.1746 27.9473 20.2695L33.2695 17.4992ZM31.9256 18.18L32.4806 16.237L26.7114 14.589L26.1564 16.532L31.9256 18.18Z" fill="#1081E8" mask="url(#path-2-inside-1_130_1865)"/>
</svg>
