<svg width="24" height="24" viewBox="0 0 24 24" fill="none" xmlns="http://www.w3.org/2000/svg">
<path fill-rule="evenodd" clip-rule="evenodd" d="M7.4473 12.0001C7.4473 11.4804 7.53355 10.9822 7.68767 10.5149L4.99142 8.45605C4.46592 9.52293 4.16992 10.7252 4.16992 12.0001C4.16992 13.2739 4.46567 14.4753 4.9903 15.5415L7.68505 13.4787C7.53242 13.0136 7.4473 12.5172 7.4473 12.0001Z" fill="#FBBC05"/>
<path fill-rule="evenodd" clip-rule="evenodd" d="M12.1821 7.27275C13.3109 7.27275 14.3306 7.67275 15.1317 8.32725L17.4622 6C16.0421 4.76363 14.2213 4 12.1821 4C9.01606 4 6.29506 5.8105 4.99219 8.456L7.68831 10.5149C8.30956 8.62912 10.0804 7.27275 12.1821 7.27275Z" fill="#EA4335"/>
<path fill-rule="evenodd" clip-rule="evenodd" d="M12.1821 16.7272C10.0806 16.7272 8.30969 15.3709 7.68844 13.4851L4.99219 15.5436C6.29506 18.1895 9.01606 20 12.1821 20C14.1361 20 16.0017 19.3061 17.4018 18.0061L14.8426 16.0276C14.1204 16.4825 13.2111 16.7272 12.1821 16.7272Z" fill="#34A853"/>
<path fill-rule="evenodd" clip-rule="evenodd" d="M19.8288 11.9999C19.8288 11.5272 19.7559 11.018 19.6466 10.5454H12.1816V13.6363H16.4786C16.2638 14.6902 15.679 15.5003 14.8421 16.0275L17.4014 18.006C18.8721 16.641 19.8288 14.6075 19.8288 11.9999Z" fill="#4285F4"/>
</svg>
