<svg width="20" height="20" viewBox="0 0 20 20" fill="none" xmlns="http://www.w3.org/2000/svg">
<path d="M3.76712 4.94501L1.16129 2.34001L2.34045 1.16084L18.8396 17.6608L17.6605 18.8392L14.9021 16.0808C13.4365 17.0105 11.7361 17.5028 10.0005 17.5C5.50712 17.5 1.76879 14.2667 0.984619 10C1.34298 8.05894 2.31931 6.28575 3.76795 4.94501H3.76712ZM12.298 13.4767L11.078 12.2567C10.6113 12.4799 10.0869 12.553 9.57706 12.4657C9.06719 12.3784 8.59696 12.1351 8.23118 11.7693C7.8654 11.4035 7.62209 10.9333 7.5348 10.4234C7.4475 9.91353 7.52052 9.38913 7.74379 8.92251L6.52379 7.70251C5.99355 8.50375 5.75651 9.46362 5.85281 10.4196C5.94911 11.3755 6.37283 12.2689 7.05222 12.9482C7.73161 13.6276 8.62491 14.0513 9.58088 14.1476C10.5368 14.2439 11.4967 14.0069 12.298 13.4767V13.4767ZM6.64545 3.13334C7.68462 2.72501 8.81712 2.50001 10.0005 2.50001C14.4938 2.50001 18.2321 5.73334 19.0163 10C18.7609 11.3881 18.187 12.698 17.3396 13.8267L14.123 10.61C14.2185 9.96635 14.162 9.30926 13.9579 8.69139C13.7538 8.07351 13.4078 7.51202 12.9477 7.0519C12.4876 6.59178 11.9261 6.24582 11.3082 6.04173C10.6904 5.83765 10.0333 5.78112 9.38962 5.87667L6.64545 3.13417V3.13334Z" fill="#A7C9FD"/>
</svg>
