<svg width="137" height="24" viewBox="0 0 137 24" fill="none" xmlns="http://www.w3.org/2000/svg">
<path d="M11.5489 2.92705C11.8483 2.00574 13.1517 2.00574 13.4511 2.92705L14.9697 7.60081C15.1035 8.01284 15.4875 8.2918 15.9207 8.2918H20.835C21.8037 8.2918 22.2065 9.53141 21.4228 10.1008L17.447 12.9894C17.0966 13.244 16.9499 13.6954 17.0838 14.1074L18.6024 18.7812C18.9017 19.7025 17.8472 20.4686 17.0635 19.8992L13.0878 17.0106C12.7373 16.756 12.2627 16.756 11.9122 17.0106L7.93648 19.8992C7.15276 20.4686 6.09828 19.7025 6.39763 18.7812L7.91623 14.1074C8.05011 13.6954 7.90345 13.244 7.55296 12.9894L3.57722 10.1008C2.79351 9.53141 3.19628 8.2918 4.16501 8.2918H9.07929C9.51252 8.2918 9.89647 8.01284 10.0303 7.60081L11.5489 2.92705Z" fill="#FFC806"/>
<path d="M39.5489 2.92705C39.8483 2.00574 41.1517 2.00574 41.4511 2.92705L42.9697 7.60081C43.1035 8.01284 43.4875 8.2918 43.9207 8.2918H48.835C49.8037 8.2918 50.2065 9.53141 49.4228 10.1008L45.447 12.9894C45.0966 13.244 44.9499 13.6954 45.0838 14.1074L46.6024 18.7812C46.9017 19.7025 45.8472 20.4686 45.0635 19.8992L41.0878 17.0106C40.7373 16.756 40.2627 16.756 39.9122 17.0106L35.9365 19.8992C35.1528 20.4686 34.0983 19.7025 34.3976 18.7812L35.9162 14.1074C36.0501 13.6954 35.9034 13.244 35.553 12.9894L31.5772 10.1008C30.7935 9.53141 31.1963 8.2918 32.165 8.2918H37.0793C37.5125 8.2918 37.8965 8.01284 38.0303 7.60081L39.5489 2.92705Z" fill="#FFC806"/>
<path d="M67.5489 2.92705C67.8483 2.00574 69.1517 2.00574 69.4511 2.92705L70.9697 7.60081C71.1035 8.01284 71.4875 8.2918 71.9207 8.2918H76.835C77.8037 8.2918 78.2065 9.53141 77.4228 10.1008L73.447 12.9894C73.0966 13.244 72.9499 13.6954 73.0838 14.1074L74.6024 18.7812C74.9017 19.7025 73.8472 20.4686 73.0635 19.8992L69.0878 17.0106C68.7373 16.756 68.2627 16.756 67.9122 17.0106L63.9365 19.8992C63.1528 20.4686 62.0983 19.7025 62.3976 18.7812L63.9162 14.1074C64.0501 13.6954 63.9034 13.244 63.553 12.9894L59.5772 10.1008C58.7935 9.53141 59.1963 8.2918 60.165 8.2918H65.0793C65.5125 8.2918 65.8965 8.01284 66.0303 7.60081L67.5489 2.92705Z" fill="#FFC806"/>
<path d="M95.5489 2.92705C95.8483 2.00574 97.1517 2.00574 97.4511 2.92705L98.9697 7.60081C99.1035 8.01284 99.4875 8.2918 99.9207 8.2918H104.835C105.804 8.2918 106.206 9.53141 105.423 10.1008L101.447 12.9894C101.097 13.244 100.95 13.6954 101.084 14.1074L102.602 18.7812C102.902 19.7025 101.847 20.4686 101.064 19.8992L97.0878 17.0106C96.7373 16.756 96.2627 16.756 95.9122 17.0106L91.9365 19.8992C91.1528 20.4686 90.0983 19.7025 90.3976 18.7812L91.9162 14.1074C92.0501 13.6954 91.9034 13.244 91.553 12.9894L87.5772 10.1008C86.7935 9.53141 87.1963 8.2918 88.165 8.2918H93.0793C93.5125 8.2918 93.8965 8.01284 94.0303 7.60081L95.5489 2.92705Z" fill="#FFC806"/>
<path d="M123.549 2.92705C123.848 2.00574 125.152 2.00574 125.451 2.92705L126.97 7.60081C127.104 8.01284 127.487 8.2918 127.921 8.2918H132.835C133.804 8.2918 134.206 9.53141 133.423 10.1008L129.447 12.9894C129.097 13.244 128.95 13.6954 129.084 14.1074L130.602 18.7812C130.902 19.7025 129.847 20.4686 129.064 19.8992L125.088 17.0106C124.737 16.756 124.263 16.756 123.912 17.0106L119.936 19.8992C119.153 20.4686 118.098 19.7025 118.398 18.7812L119.916 14.1074C120.05 13.6954 119.903 13.244 119.553 12.9894L115.577 10.1008C114.794 9.53141 115.196 8.2918 116.165 8.2918H121.079C121.513 8.2918 121.896 8.01284 122.03 7.60081L123.549 2.92705Z" fill="#FFC806"/>
</svg>
