<svg width="48" height="48" viewBox="0 0 48 48" fill="none" xmlns="http://www.w3.org/2000/svg">
<circle cx="24" cy="24" r="24" fill="#CEF1FD"/>
<path fill-rule="evenodd" clip-rule="evenodd" d="M22.5 30.4993C18.0817 30.4993 14.5 26.9175 14.5 22.4993C14.5 18.081 18.0817 14.4993 22.5 14.4993C26.9183 14.4993 30.5 18.081 30.5 22.4993C30.5 26.9175 26.9183 30.4993 22.5 30.4993ZM12.5 22.4993C12.5 16.9764 16.9772 12.4993 22.5 12.4993C28.0228 12.4993 32.5 16.9764 32.5 22.4993C32.5 28.0221 28.0228 32.4993 22.5 32.4993C16.9772 32.4993 12.5 28.0221 12.5 22.4993ZM21.0868 27.1557L28.1567 20.0847L26.7428 18.6707L21.0868 24.3277L18.2577 21.4987L16.8438 22.9127L21.0868 27.1557Z" fill="#2561ED"/>
</svg>
