<svg width="48" height="48" viewBox="0 0 48 48" fill="none" xmlns="http://www.w3.org/2000/svg">
<circle cx="24" cy="24" r="24" fill="#CEF1FD"/>
<rect width="24" height="24" transform="translate(10.499 10.4993)" fill="#CEF1FD"/>
<path d="M29.8159 30.4768L29.5412 30.4884C29.3591 30.4961 29.1779 30.4993 28.999 30.4993M29.8159 30.4768L14.5 15.9991C14.4989 24.0075 20.9908 30.4993 28.999 30.4993M29.8159 30.4768C29.545 30.4918 29.2727 30.4993 28.999 30.4993M29.8159 30.4768L28.999 30.4993M23.3223 26.0023L23.4337 26.0657C23.4151 26.0554 23.3966 26.0451 23.3781 26.0347C23.3773 26.0343 23.3766 26.0339 23.3758 26.0334L23.3226 26.0032C21.5175 24.9758 20.0226 23.4809 18.9952 21.6757C18.9952 21.6757 18.9951 21.6757 18.9951 21.6756L18.9635 21.6201C18.8259 21.3751 18.6975 21.1251 18.5784 20.8708L19.8242 19.981L20.4989 19.4992L20.1504 18.7469C19.806 18.0035 19.5364 17.2286 19.3451 16.4338C19.6006 17.4948 19.9954 18.5202 20.5215 19.4828L20.5219 19.4835L19.2839 20.3674L19.865 21.1813L18.996 21.676C20.0232 23.4806 21.5177 24.9751 23.3223 26.0023ZM24.1275 26.4199C24.1274 26.4199 24.1273 26.4198 24.1272 26.4198L24.6308 25.7144L25.5148 24.4764L25.5155 24.4768C26.4811 25.0045 27.5099 25.4001 28.5744 25.6555C27.7761 25.4641 26.9979 25.1938 26.2514 24.8479L25.4991 24.4994L25.0173 25.1741L24.1275 26.4199ZM30.499 25.9898L29.7178 25.8738C29.9768 25.9108 30.2374 25.9396 30.499 25.9601V25.9603V25.9898ZM19.0381 14.4993C19.0587 14.7608 19.0875 15.0213 19.1245 15.2803L19.0085 14.4993H19.038H19.0381Z" fill="#2561ED" stroke="#1081E8" stroke-width="2"/>
</svg>
