<svg width="48" height="48" viewBox="0 0 48 48" fill="none" xmlns="http://www.w3.org/2000/svg">
<circle cx="24" cy="24" r="24" fill="#CEF1FD"/>
<rect width="24" height="24" transform="translate(10.499 10.4993)" fill="#CEF1FD"/>
<path d="M19.865 21.1813C20.8034 22.8297 22.1685 24.1949 23.817 25.1333L24.701 23.8953C24.8432 23.6962 25.0534 23.5561 25.2918 23.5016C25.5303 23.4471 25.7805 23.4818 25.995 23.5993C27.4093 24.3722 28.9712 24.837 30.578 24.9633C30.8288 24.9831 31.0629 25.0968 31.2336 25.2816C31.4043 25.4664 31.4991 25.7087 31.499 25.9603V30.4223C31.4991 30.6699 31.4073 30.9087 31.2414 31.0925C31.0755 31.2763 30.8473 31.392 30.601 31.4173C30.071 31.4723 29.537 31.4993 28.999 31.4993C20.439 31.4993 13.499 24.5593 13.499 15.9993C13.499 15.4613 13.526 14.9273 13.581 14.3973C13.6063 14.151 13.722 13.9228 13.9058 13.7569C14.0896 13.591 14.3284 13.4992 14.576 13.4993H19.038C19.2896 13.4992 19.5319 13.594 19.7167 13.7647C19.9015 13.9354 20.0152 14.1695 20.035 14.4203C20.1612 16.0271 20.6261 17.5889 21.399 19.0033C21.5165 19.2178 21.5512 19.468 21.4967 19.7065C21.4421 19.9449 21.3021 20.1551 21.103 20.2973L19.865 21.1813V21.1813ZM17.343 20.5243L19.243 19.1673C18.7038 18.0034 18.3344 16.7681 18.146 15.4993H15.509C15.503 15.6653 15.5 15.8323 15.5 15.9993C15.499 23.4553 21.543 29.4993 28.999 29.4993C29.166 29.4993 29.333 29.4963 29.499 29.4893V26.8523C28.2302 26.6639 26.9949 26.2945 25.831 25.7553L24.474 27.6553C23.9277 27.443 23.397 27.1924 22.886 26.9053L22.828 26.8723C20.8666 25.756 19.2423 24.1317 18.126 22.1703L18.093 22.1123C17.8059 21.6013 17.5553 21.0706 17.343 20.5243V20.5243Z" fill="#2561ED"/>
</svg>
