<svg width="48" height="48" viewBox="0 0 48 48" fill="none" xmlns="http://www.w3.org/2000/svg">
<circle cx="24" cy="24" r="24" fill="#CEF1FD"/>
<rect width="24" height="24" transform="translate(12 12)" fill="#CEF1FD"/>
<path d="M24 28.125C26.2782 28.125 28.125 26.2782 28.125 24C28.125 21.7218 26.2782 19.875 24 19.875C21.7218 19.875 19.875 21.7218 19.875 24C19.875 26.2782 21.7218 28.125 24 28.125Z" stroke="#1081E8" stroke-width="3" stroke-linecap="round" stroke-linejoin="round"/>
<path d="M29.2223 18.103C29.4598 18.3218 29.6848 18.5468 29.8973 18.778L32.4566 19.1437C32.8737 19.8679 33.1951 20.6431 33.4129 21.4499L31.8566 23.5218C31.8566 23.5218 31.8848 24.1593 31.8566 24.478L33.4129 26.5499C33.1961 27.3571 32.8746 28.1324 32.4566 28.8562L29.8973 29.2218C29.8973 29.2218 29.4566 29.6812 29.2223 29.8968L28.8566 32.4562C28.1324 32.8732 27.3572 33.1946 26.5504 33.4124L24.4785 31.8562C24.1604 31.8843 23.8404 31.8843 23.5223 31.8562L21.4504 33.4124C20.6432 33.1956 19.8679 32.8741 19.1441 32.4562L18.7785 29.8968C18.5473 29.678 18.3223 29.453 18.1035 29.2218L15.5441 28.8562C15.1271 28.1319 14.8057 27.3567 14.5879 26.5499L16.1441 24.478C16.1441 24.478 16.1254 23.8405 16.1441 23.5218L14.5879 21.4499C14.8047 20.6427 15.1262 19.8674 15.5441 19.1437L18.1035 18.778C18.3223 18.5468 18.5473 18.3218 18.7785 18.103L19.1441 15.5437C19.8684 15.1266 20.6436 14.8052 21.4504 14.5874L23.5223 16.1437C23.8404 16.1155 24.1604 16.1155 24.4785 16.1437L26.5504 14.5874C27.3576 14.8042 28.1329 15.1257 28.8566 15.5437L29.2223 18.103Z" stroke="#1081E8" stroke-width="3" stroke-linecap="round" stroke-linejoin="round"/>
</svg>
