<svg width="48" height="48" viewBox="0 0 48 48" fill="none" xmlns="http://www.w3.org/2000/svg">
<circle cx="24" cy="24" r="24" fill="#CEF1FD"/>
<mask id="path-2-inside-1_130_1432" fill="white">
<path fill-rule="evenodd" clip-rule="evenodd" d="M22.4995 30.4993C18.0812 30.4993 14.4995 26.9175 14.4995 22.4993C14.4995 18.081 18.0812 14.4993 22.4995 14.4993C26.9178 14.4993 30.4995 18.081 30.4995 22.4993C30.4995 26.9175 26.9178 30.4993 22.4995 30.4993ZM12.4995 22.4993C12.4995 16.9764 16.9767 12.4993 22.4995 12.4993C28.0224 12.4993 32.4995 16.9764 32.4995 22.4993C32.4995 28.0221 28.0224 32.4993 22.4995 32.4993C16.9767 32.4993 12.4995 28.0221 12.4995 22.4993ZM21.0863 27.1557L28.1563 20.0847L26.7423 18.6707L21.0863 24.3277L18.2573 21.4987L16.8433 22.9127L21.0863 27.1557Z"/>
</mask>
<path fill-rule="evenodd" clip-rule="evenodd" d="M22.4995 30.4993C18.0812 30.4993 14.4995 26.9175 14.4995 22.4993C14.4995 18.081 18.0812 14.4993 22.4995 14.4993C26.9178 14.4993 30.4995 18.081 30.4995 22.4993C30.4995 26.9175 26.9178 30.4993 22.4995 30.4993ZM12.4995 22.4993C12.4995 16.9764 16.9767 12.4993 22.4995 12.4993C28.0224 12.4993 32.4995 16.9764 32.4995 22.4993C32.4995 28.0221 28.0224 32.4993 22.4995 32.4993C16.9767 32.4993 12.4995 28.0221 12.4995 22.4993ZM21.0863 27.1557L28.1563 20.0847L26.7423 18.6707L21.0863 24.3277L18.2573 21.4987L16.8433 22.9127L21.0863 27.1557Z" fill="#2561ED"/>
<path d="M28.1563 20.0847L30.2777 22.2058L32.3988 20.0845L30.2776 17.9633L28.1563 20.0847ZM21.0863 27.1557L18.9649 29.277L21.0864 31.3984L23.2077 29.2768L21.0863 27.1557ZM26.7423 18.6707L28.8636 16.5493L26.7421 14.4278L24.6208 16.5495L26.7423 18.6707ZM21.0863 24.3277L18.9649 26.449L21.0864 28.5705L23.2078 26.4488L21.0863 24.3277ZM18.2573 21.4987L20.3786 19.3773L18.2573 17.256L16.1359 19.3773L18.2573 21.4987ZM16.8433 22.9127L14.7219 20.7913L12.6006 22.9127L14.7219 25.034L16.8433 22.9127ZM11.4995 22.4993C11.4995 28.5744 16.4244 33.4993 22.4995 33.4993V27.4993C19.7381 27.4993 17.4995 25.2607 17.4995 22.4993H11.4995ZM22.4995 11.4993C16.4244 11.4993 11.4995 16.4241 11.4995 22.4993H17.4995C17.4995 19.7378 19.7381 17.4993 22.4995 17.4993V11.4993ZM33.4995 22.4993C33.4995 16.4241 28.5746 11.4993 22.4995 11.4993V17.4993C25.2609 17.4993 27.4995 19.7378 27.4995 22.4993H33.4995ZM22.4995 33.4993C28.5746 33.4993 33.4995 28.5744 33.4995 22.4993H27.4995C27.4995 25.2607 25.2609 27.4993 22.4995 27.4993V33.4993ZM22.4995 9.49927C15.3198 9.49927 9.49951 15.3196 9.49951 22.4993H15.4995C15.4995 18.6333 18.6335 15.4993 22.4995 15.4993V9.49927ZM35.4995 22.4993C35.4995 15.3196 29.6792 9.49927 22.4995 9.49927V15.4993C26.3655 15.4993 29.4995 18.6333 29.4995 22.4993H35.4995ZM22.4995 35.4993C29.6792 35.4993 35.4995 29.679 35.4995 22.4993H29.4995C29.4995 26.3653 26.3655 29.4993 22.4995 29.4993V35.4993ZM9.49951 22.4993C9.49951 29.679 15.3198 35.4993 22.4995 35.4993V29.4993C18.6335 29.4993 15.4995 26.3653 15.4995 22.4993H9.49951ZM26.0348 17.9635L18.9648 25.0345L23.2077 29.2768L30.2777 22.2058L26.0348 17.9635ZM24.6209 20.792L26.0349 22.206L30.2776 17.9633L28.8636 16.5493L24.6209 20.792ZM23.2078 26.4488L28.8638 20.7918L24.6208 16.5495L18.9648 22.2065L23.2078 26.4488ZM16.1359 23.62L18.9649 26.449L23.2076 22.2063L20.3786 19.3773L16.1359 23.62ZM18.9646 25.034L20.3786 23.62L16.1359 19.3773L14.7219 20.7913L18.9646 25.034ZM23.2076 25.0343L18.9646 20.7913L14.7219 25.034L18.9649 29.277L23.2076 25.0343Z" fill="#1081E8" mask="url(#path-2-inside-1_130_1432)"/>
</svg>
