<svg width="48" height="48" viewBox="0 0 48 48" fill="none" xmlns="http://www.w3.org/2000/svg">
<circle cx="24" cy="24" r="24" fill="#CEF1FD"/>
<rect width="24" height="24" transform="translate(12 12)" fill="#CEF1FD"/>
<path d="M28.757 15L26.757 17H17V31H31V21.243L33 19.243V32C33 32.2652 32.8946 32.5195 32.7071 32.7071C32.5196 32.8946 32.2652 33 32 33H16C15.7348 33 15.4804 32.8946 15.2929 32.7071C15.1054 32.5195 15 32.2652 15 32V16C15 15.7348 15.1054 15.4804 15.2929 15.2929C15.4804 15.1053 15.7348 15 16 15H28.757V15ZM32.485 14.1L33.9 15.516L24.708 24.708L23.296 24.711L23.294 23.294L32.485 14.1V14.1Z" fill="#1081E8"/>
</svg>
