<svg width="48" height="48" viewBox="0 0 48 48" fill="none" xmlns="http://www.w3.org/2000/svg">
<circle cx="24" cy="24" r="24" fill="#CEF1FD"/>
<rect width="24" height="24" transform="translate(12 12)" fill="#CEF1FD"/>
<mask id="path-2-inside-1_130_1401" fill="white">
<path d="M24 13L33.5 18.5V29.5L24 35L14.5 29.5V18.5L24 13ZM24 15.311L16.5 19.653V28.347L24 32.689L31.5 28.347V19.653L24 15.311ZM24 28C22.9391 28 21.9217 27.5786 21.1716 26.8284C20.4214 26.0783 20 25.0609 20 24C20 22.9391 20.4214 21.9217 21.1716 21.1716C21.9217 20.4214 22.9391 20 24 20C25.0609 20 26.0783 20.4214 26.8284 21.1716C27.5786 21.9217 28 22.9391 28 24C28 25.0609 27.5786 26.0783 26.8284 26.8284C26.0783 27.5786 25.0609 28 24 28ZM24 26C24.5304 26 25.0391 25.7893 25.4142 25.4142C25.7893 25.0391 26 24.5304 26 24C26 23.4696 25.7893 22.9609 25.4142 22.5858C25.0391 22.2107 24.5304 22 24 22C23.4696 22 22.9609 22.2107 22.5858 22.5858C22.2107 22.9609 22 23.4696 22 24C22 24.5304 22.2107 25.0391 22.5858 25.4142C22.9609 25.7893 23.4696 26 24 26Z"/>
</mask>
<path d="M24 13L33.5 18.5V29.5L24 35L14.5 29.5V18.5L24 13ZM24 15.311L16.5 19.653V28.347L24 32.689L31.5 28.347V19.653L24 15.311ZM24 28C22.9391 28 21.9217 27.5786 21.1716 26.8284C20.4214 26.0783 20 25.0609 20 24C20 22.9391 20.4214 21.9217 21.1716 21.1716C21.9217 20.4214 22.9391 20 24 20C25.0609 20 26.0783 20.4214 26.8284 21.1716C27.5786 21.9217 28 22.9391 28 24C28 25.0609 27.5786 26.0783 26.8284 26.8284C26.0783 27.5786 25.0609 28 24 28ZM24 26C24.5304 26 25.0391 25.7893 25.4142 25.4142C25.7893 25.0391 26 24.5304 26 24C26 23.4696 25.7893 22.9609 25.4142 22.5858C25.0391 22.2107 24.5304 22 24 22C23.4696 22 22.9609 22.2107 22.5858 22.5858C22.2107 22.9609 22 23.4696 22 24C22 24.5304 22.2107 25.0391 22.5858 25.4142C22.9609 25.7893 23.4696 26 24 26Z" fill="#1081E8"/>
<path d="M24 13L25.5031 10.4037L24 9.5335L22.4969 10.4037L24 13ZM33.5 18.5H36.5V16.7703L35.0031 15.9037L33.5 18.5ZM33.5 29.5L35.0031 32.0963L36.5 31.2297V29.5H33.5ZM24 35L22.4969 37.5963L24 38.4665L25.5031 37.5963L24 35ZM14.5 29.5H11.5V31.2297L12.9969 32.0963L14.5 29.5ZM14.5 18.5L12.9969 15.9037L11.5 16.7703V18.5H14.5ZM24 15.311L25.5031 12.7147L24 11.8445L22.4969 12.7147L24 15.311ZM16.5 19.653L14.9969 17.0567L13.5 17.9233V19.653H16.5ZM16.5 28.347H13.5V30.0767L14.9969 30.9433L16.5 28.347ZM24 32.689L22.4969 35.2853L24 36.1555L25.5031 35.2853L24 32.689ZM31.5 28.347L33.0031 30.9433L34.5 30.0767V28.347H31.5ZM31.5 19.653H34.5V17.9233L33.0031 17.0567L31.5 19.653ZM24 28L24 31L24 28ZM20 24L17 24L20 24ZM24 20L24 17L24 20ZM28 24L31 24L28 24ZM22.4969 15.5963L31.9969 21.0963L35.0031 15.9037L25.5031 10.4037L22.4969 15.5963ZM30.5 18.5V29.5H36.5V18.5H30.5ZM31.9969 26.9037L22.4969 32.4037L25.5031 37.5963L35.0031 32.0963L31.9969 26.9037ZM25.5031 32.4037L16.0031 26.9037L12.9969 32.0963L22.4969 37.5963L25.5031 32.4037ZM17.5 29.5V18.5H11.5V29.5H17.5ZM16.0031 21.0963L25.5031 15.5963L22.4969 10.4037L12.9969 15.9037L16.0031 21.0963ZM22.4969 12.7147L14.9969 17.0567L18.0031 22.2493L25.5031 17.9073L22.4969 12.7147ZM13.5 19.653V28.347H19.5V19.653H13.5ZM14.9969 30.9433L22.4969 35.2853L25.5031 30.0927L18.0031 25.7507L14.9969 30.9433ZM25.5031 35.2853L33.0031 30.9433L29.9969 25.7507L22.4969 30.0927L25.5031 35.2853ZM34.5 28.347V19.653H28.5V28.347H34.5ZM33.0031 17.0567L25.5031 12.7147L22.4969 17.9073L29.9969 22.2493L33.0031 17.0567ZM24 25C23.7348 25 23.4804 24.8946 23.2929 24.7071L19.0503 28.9497C20.363 30.2625 22.1435 31 24 31L24 25ZM23.2929 24.7071C23.1054 24.5196 23 24.2652 23 24L17 24C17 25.8565 17.7375 27.637 19.0503 28.9497L23.2929 24.7071ZM23 24C23 23.7348 23.1054 23.4804 23.2929 23.2929L19.0503 19.0503C17.7375 20.363 17 22.1435 17 24H23ZM23.2929 23.2929C23.4804 23.1054 23.7348 23 24 23L24 17C22.1435 17 20.363 17.7375 19.0503 19.0503L23.2929 23.2929ZM24 23C24.2652 23 24.5196 23.1054 24.7071 23.2929L28.9497 19.0503C27.637 17.7375 25.8565 17 24 17L24 23ZM24.7071 23.2929C24.8946 23.4804 25 23.7348 25 24L31 24C31 22.1435 30.2625 20.363 28.9497 19.0503L24.7071 23.2929ZM25 24C25 24.2652 24.8946 24.5196 24.7071 24.7071L28.9497 28.9497C30.2625 27.637 31 25.8565 31 24L25 24ZM24.7071 24.7071C24.5196 24.8946 24.2652 25 24 25L24 31C25.8565 31 27.637 30.2625 28.9497 28.9497L24.7071 24.7071ZM24 29C25.3261 29 26.5979 28.4732 27.5355 27.5355L23.2929 23.2929C23.4804 23.1054 23.7348 23 24 23V29ZM27.5355 27.5355C28.4732 26.5979 29 25.3261 29 24H23C23 23.7348 23.1054 23.4804 23.2929 23.2929L27.5355 27.5355ZM29 24C29 22.6739 28.4732 21.4021 27.5355 20.4645L23.2929 24.7071C23.1054 24.5196 23 24.2652 23 24H29ZM27.5355 20.4645C26.5979 19.5268 25.3261 19 24 19V25C23.7348 25 23.4804 24.8946 23.2929 24.7071L27.5355 20.4645ZM24 19C22.6739 19 21.4021 19.5268 20.4645 20.4645L24.7071 24.7071C24.5196 24.8946 24.2652 25 24 25V19ZM20.4645 20.4645C19.5268 21.4021 19 22.6739 19 24H25C25 24.2652 24.8946 24.5196 24.7071 24.7071L20.4645 20.4645ZM19 24C19 25.3261 19.5268 26.5979 20.4645 27.5355L24.7071 23.2929C24.8946 23.4804 25 23.7348 25 24H19ZM20.4645 27.5355C21.4021 28.4732 22.6739 29 24 29V23C24.2652 23 24.5196 23.1054 24.7071 23.2929L20.4645 27.5355Z" fill="#1081E8" mask="url(#path-2-inside-1_130_1401)"/>
</svg>
