<svg width="48" height="48" viewBox="0 0 48 48" fill="none" xmlns="http://www.w3.org/2000/svg">
<circle cx="24" cy="24" r="24" fill="#CEF1FD"/>
<mask id="path-2-inside-1_130_1394" fill="white">
<path fill-rule="evenodd" clip-rule="evenodd" d="M28.5 21.2675C29.0815 21.4415 29.5 21.5 29.5 21.5V20H30.5C31.163 20 31.7989 19.7366 32.2678 19.2678C32.7366 18.7989 33 18.163 33 17.5C33 16.837 32.7366 16.2011 32.2678 15.7322C31.7989 15.2634 31.163 15 30.5 15H27.618C26.9237 15 26.2578 15.2758 25.7668 15.7668C25.2758 16.2578 25 16.9237 25 17.618C25 19.877 27.174 20.871 28.5 21.2675ZM32 17.5C32 17.8978 31.842 18.2794 31.5607 18.5607C31.2794 18.842 30.8978 19 30.5 19H28.5V20.2175C28.2257 20.1244 27.9579 20.0129 27.6985 19.884C26.707 19.387 26 18.68 26 17.618C26 17.1889 26.1705 16.7773 26.4739 16.4739C26.7773 16.1705 27.1889 16 27.618 16H30.5C30.8978 16 31.2794 16.158 31.5607 16.4393C31.842 16.7206 32 17.1022 32 17.5ZM19.4085 20.9965C18.7533 20.9738 18.1332 20.6945 17.682 20.2189C17.2307 19.7432 16.9845 19.1093 16.9964 18.4537C17.0083 17.7982 17.2773 17.1736 17.7454 16.7146C18.2136 16.2556 18.8434 15.9989 19.499 16H21.0835C21.7244 16 22.339 16.2546 22.7922 16.7078C23.2454 17.161 23.5 17.7756 23.5 18.4165C23.5 20.4375 21.685 21.3615 20.5 21.75C19.926 21.938 19.5 22 19.5 22V21L19.4085 20.9965V20.9965ZM20.5 20.0355L19.445 19.9975C19.0485 19.9889 18.6717 19.8235 18.3969 19.5376C18.1221 19.2517 17.9717 18.8686 17.9788 18.4721C17.9859 18.0756 18.1498 17.6981 18.4346 17.4222C18.7194 17.1463 19.102 16.9945 19.4985 17H21.083C21.2691 16.9999 21.4533 17.0365 21.6252 17.1077C21.7971 17.1788 21.9534 17.2832 22.0849 17.4147C22.2165 17.5462 22.3209 17.7024 22.3921 17.8743C22.4633 18.0462 22.5 18.2304 22.5 18.4165C22.5 19.374 21.8915 20.0015 21.038 20.4465C20.858 20.5405 20.6755 20.6205 20.5 20.6885V20.0355ZM26 24C26 25.105 25.105 26 24 26C22.895 26 22 25.105 22 24C22 22.895 22.895 22 24 22C25.105 22 26 22.895 26 24ZM25 24C25 24.2652 24.8946 24.5196 24.7071 24.7071C24.5196 24.8946 24.2652 25 24 25C23.7348 25 23.4804 24.8946 23.2929 24.7071C23.1054 24.5196 23 24.2652 23 24C23 23.7348 23.1054 23.4804 23.2929 23.2929C23.4804 23.1054 23.7348 23 24 23C24.2652 23 24.5196 23.1054 24.7071 23.2929C24.8946 23.4804 25 23.7348 25 24V24ZM21.5 25C21.5 26.105 20.605 27 19.5 27C18.395 27 17.5 26.105 17.5 25C17.5 23.895 18.395 23 19.5 23C20.605 23 21.5 23.895 21.5 25ZM20.5 25C20.5 25.2652 20.3946 25.5196 20.2071 25.7071C20.0196 25.8946 19.7652 26 19.5 26C19.2348 26 18.9804 25.8946 18.7929 25.7071C18.6054 25.5196 18.5 25.2652 18.5 25C18.5 24.7348 18.6054 24.4804 18.7929 24.2929C18.9804 24.1054 19.2348 24 19.5 24C19.7652 24 20.0196 24.1054 20.2071 24.2929C20.3946 24.4804 20.5 24.7348 20.5 25V25ZM15 30.2725C15 28.7615 17.998 28 19.5 28C19.7925 28 20.142 28.029 20.515 28.0865C21.185 27.595 22.4135 27 24 27C25.586 27 26.8145 27.595 27.4855 28.0865C27.821 28.0324 28.1601 28.0035 28.5 28C30.002 28 33 28.7615 33 30.2725V33H15V30.2725ZM22.826 30.0115C23 30.1735 23 30.258 23 30.2725V32H16V30.2725C16 30.2575 16 30.1735 16.174 30.0115C16.3555 29.842 16.655 29.6615 17.062 29.4965C17.878 29.1665 18.875 29 19.5 29C20.125 29 21.122 29.1665 21.938 29.4965C22.345 29.6615 22.6445 29.842 22.826 30.0115ZM26.071 28.428C25.4174 28.1446 24.7124 27.9989 24 28C23.172 28 22.468 28.193 21.9295 28.428C23.037 28.8 24 29.416 24 30.273C24 29.416 24.963 28.8005 26.071 28.428V28.428ZM32 30.273C32 30.258 32 30.1735 31.826 30.0115C31.6445 29.842 31.345 29.6615 30.938 29.4965C30.122 29.1665 29.125 29 28.5 29C27.875 29 26.878 29.1665 26.062 29.4965C25.655 29.6615 25.3555 29.842 25.174 30.0115C25 30.1735 25 30.258 25 30.2725V32H32V30.2725V30.273ZM28.5 27C29.605 27 30.5 26.105 30.5 25C30.5 23.895 29.605 23 28.5 23C27.395 23 26.5 23.895 26.5 25C26.5 26.105 27.395 27 28.5 27ZM28.5 26C28.7652 26 29.0196 25.8946 29.2071 25.7071C29.3946 25.5196 29.5 25.2652 29.5 25C29.5 24.7348 29.3946 24.4804 29.2071 24.2929C29.0196 24.1054 28.7652 24 28.5 24C28.2348 24 27.9804 24.1054 27.7929 24.2929C27.6054 24.4804 27.5 24.7348 27.5 25C27.5 25.2652 27.6054 25.5196 27.7929 25.7071C27.9804 25.8946 28.2348 26 28.5 26Z"/>
</mask>
<path fill-rule="evenodd" clip-rule="evenodd" d="M28.5 21.2675C29.0815 21.4415 29.5 21.5 29.5 21.5V20H30.5C31.163 20 31.7989 19.7366 32.2678 19.2678C32.7366 18.7989 33 18.163 33 17.5C33 16.837 32.7366 16.2011 32.2678 15.7322C31.7989 15.2634 31.163 15 30.5 15H27.618C26.9237 15 26.2578 15.2758 25.7668 15.7668C25.2758 16.2578 25 16.9237 25 17.618C25 19.877 27.174 20.871 28.5 21.2675ZM32 17.5C32 17.8978 31.842 18.2794 31.5607 18.5607C31.2794 18.842 30.8978 19 30.5 19H28.5V20.2175C28.2257 20.1244 27.9579 20.0129 27.6985 19.884C26.707 19.387 26 18.68 26 17.618C26 17.1889 26.1705 16.7773 26.4739 16.4739C26.7773 16.1705 27.1889 16 27.618 16H30.5C30.8978 16 31.2794 16.158 31.5607 16.4393C31.842 16.7206 32 17.1022 32 17.5ZM19.4085 20.9965C18.7533 20.9738 18.1332 20.6945 17.682 20.2189C17.2307 19.7432 16.9845 19.1093 16.9964 18.4537C17.0083 17.7982 17.2773 17.1736 17.7454 16.7146C18.2136 16.2556 18.8434 15.9989 19.499 16H21.0835C21.7244 16 22.339 16.2546 22.7922 16.7078C23.2454 17.161 23.5 17.7756 23.5 18.4165C23.5 20.4375 21.685 21.3615 20.5 21.75C19.926 21.938 19.5 22 19.5 22V21L19.4085 20.9965V20.9965ZM20.5 20.0355L19.445 19.9975C19.0485 19.9889 18.6717 19.8235 18.3969 19.5376C18.1221 19.2517 17.9717 18.8686 17.9788 18.4721C17.9859 18.0756 18.1498 17.6981 18.4346 17.4222C18.7194 17.1463 19.102 16.9945 19.4985 17H21.083C21.2691 16.9999 21.4533 17.0365 21.6252 17.1077C21.7971 17.1788 21.9534 17.2832 22.0849 17.4147C22.2165 17.5462 22.3209 17.7024 22.3921 17.8743C22.4633 18.0462 22.5 18.2304 22.5 18.4165C22.5 19.374 21.8915 20.0015 21.038 20.4465C20.858 20.5405 20.6755 20.6205 20.5 20.6885V20.0355ZM26 24C26 25.105 25.105 26 24 26C22.895 26 22 25.105 22 24C22 22.895 22.895 22 24 22C25.105 22 26 22.895 26 24ZM25 24C25 24.2652 24.8946 24.5196 24.7071 24.7071C24.5196 24.8946 24.2652 25 24 25C23.7348 25 23.4804 24.8946 23.2929 24.7071C23.1054 24.5196 23 24.2652 23 24C23 23.7348 23.1054 23.4804 23.2929 23.2929C23.4804 23.1054 23.7348 23 24 23C24.2652 23 24.5196 23.1054 24.7071 23.2929C24.8946 23.4804 25 23.7348 25 24V24ZM21.5 25C21.5 26.105 20.605 27 19.5 27C18.395 27 17.5 26.105 17.5 25C17.5 23.895 18.395 23 19.5 23C20.605 23 21.5 23.895 21.5 25ZM20.5 25C20.5 25.2652 20.3946 25.5196 20.2071 25.7071C20.0196 25.8946 19.7652 26 19.5 26C19.2348 26 18.9804 25.8946 18.7929 25.7071C18.6054 25.5196 18.5 25.2652 18.5 25C18.5 24.7348 18.6054 24.4804 18.7929 24.2929C18.9804 24.1054 19.2348 24 19.5 24C19.7652 24 20.0196 24.1054 20.2071 24.2929C20.3946 24.4804 20.5 24.7348 20.5 25V25ZM15 30.2725C15 28.7615 17.998 28 19.5 28C19.7925 28 20.142 28.029 20.515 28.0865C21.185 27.595 22.4135 27 24 27C25.586 27 26.8145 27.595 27.4855 28.0865C27.821 28.0324 28.1601 28.0035 28.5 28C30.002 28 33 28.7615 33 30.2725V33H15V30.2725ZM22.826 30.0115C23 30.1735 23 30.258 23 30.2725V32H16V30.2725C16 30.2575 16 30.1735 16.174 30.0115C16.3555 29.842 16.655 29.6615 17.062 29.4965C17.878 29.1665 18.875 29 19.5 29C20.125 29 21.122 29.1665 21.938 29.4965C22.345 29.6615 22.6445 29.842 22.826 30.0115ZM26.071 28.428C25.4174 28.1446 24.7124 27.9989 24 28C23.172 28 22.468 28.193 21.9295 28.428C23.037 28.8 24 29.416 24 30.273C24 29.416 24.963 28.8005 26.071 28.428V28.428ZM32 30.273C32 30.258 32 30.1735 31.826 30.0115C31.6445 29.842 31.345 29.6615 30.938 29.4965C30.122 29.1665 29.125 29 28.5 29C27.875 29 26.878 29.1665 26.062 29.4965C25.655 29.6615 25.3555 29.842 25.174 30.0115C25 30.1735 25 30.258 25 30.2725V32H32V30.2725V30.273ZM28.5 27C29.605 27 30.5 26.105 30.5 25C30.5 23.895 29.605 23 28.5 23C27.395 23 26.5 23.895 26.5 25C26.5 26.105 27.395 27 28.5 27ZM28.5 26C28.7652 26 29.0196 25.8946 29.2071 25.7071C29.3946 25.5196 29.5 25.2652 29.5 25C29.5 24.7348 29.3946 24.4804 29.2071 24.2929C29.0196 24.1054 28.7652 24 28.5 24C28.2348 24 27.9804 24.1054 27.7929 24.2929C27.6054 24.4804 27.5 24.7348 27.5 25C27.5 25.2652 27.6054 25.5196 27.7929 25.7071C27.9804 25.8946 28.2348 26 28.5 26Z" fill="#1081E8" stroke="#1081E8" stroke-width="6" mask="url(#path-2-inside-1_130_1394)"/>
</svg>
