<svg width="32" height="32" viewBox="0 0 32 32" fill="none" xmlns="http://www.w3.org/2000/svg">
<path d="M5.67534 22.125C4.18645 19.613 3.66565 16.6439 4.21072 13.7752C4.75579 10.9064 6.32925 8.33525 8.63569 6.54438C10.9421 4.75352 13.823 3.86611 16.7373 4.04875C19.6517 4.2314 22.3992 5.47153 24.464 7.53634C26.5288 9.60115 27.7689 12.3486 27.9516 15.263C28.1342 18.1774 27.2468 21.0582 25.4559 23.3646C23.6651 25.6711 21.0939 27.2445 18.2252 27.7896C15.3564 28.3347 12.3873 27.8139 9.87534 26.325V26.325L5.72534 27.5C5.55531 27.5497 5.37503 27.5528 5.20341 27.5089C5.03178 27.465 4.87513 27.3757 4.74986 27.2504C4.6246 27.1252 4.53534 26.9685 4.49144 26.7969C4.44753 26.6253 4.45061 26.445 4.50034 26.275L5.67534 22.125Z" stroke="#0F1D40" stroke-width="3" stroke-linecap="round" stroke-linejoin="round"/>
<path d="M10.0003 12.9375C10.0135 12.1517 10.3357 11.4027 10.8973 10.8529C11.4588 10.3031 12.2144 9.99663 13.0003 10H13.4378C13.6097 10.0003 13.7785 10.0454 13.9275 10.1309C14.0766 10.2164 14.2008 10.3393 14.2878 10.4875L15.2128 12.025C15.3019 12.1685 15.3522 12.3326 15.3587 12.5013C15.3653 12.67 15.3279 12.8376 15.2503 12.9875L14.6628 14.1875C14.8693 14.9408 15.2684 15.6274 15.8207 16.1797C16.373 16.732 17.0595 17.131 17.8128 17.3375L19.0128 16.75C19.1628 16.6724 19.3303 16.635 19.499 16.6416C19.6677 16.6482 19.8319 16.6985 19.9753 16.7875L21.5128 17.7125C21.661 17.7995 21.7839 17.9237 21.8694 18.0728C21.9549 18.2219 22 18.3907 22.0003 18.5625V19C22.0037 19.7859 21.6973 20.5415 21.1474 21.1031C20.5976 21.6646 19.8486 21.9869 19.0628 22C17.8699 22.01 16.687 21.7824 15.583 21.3305C14.4789 20.8787 13.4759 20.2115 12.6324 19.368C11.7888 18.5244 11.1217 17.5214 10.6698 16.4174C10.2179 15.3134 9.99032 14.1304 10.0003 12.9375V12.9375Z" stroke="#0F1D40" stroke-width="3" stroke-linecap="round" stroke-linejoin="round"/>
</svg>
